<svg id="Illustration" xmlns="http://www.w3.org/2000/svg" width="619.188" height="382.951" viewBox="0 0 619.188 382.951">
  <path id="Path_1531" data-name="Path 1531" d="M350.441,102.88c-37.8.051-74.178-10.664-108.976-22.567s-69.328-25.231-106.422-30.88c-23.856-3.63-50.984-3.3-69.632,9.885C47.461,72,42.263,92.99,39.755,112.381c-1.886,14.588-2.756,29.9,4.308,43.242,4.9,9.263,13.3,16.9,19.214,25.727,20.65,30.713,8.232,69.945-11.837,101.371-9.41,14.744-20.433,28.877-27.547,44.466s-10.032,33.266-2.776,48.653c7.19,15.25,23.431,26.319,40.861,33.878,35.395,15.382,76.6,18.678,116.707,19.948,88.77,2.816,177.713-2.928,266.417-8.672,32.826-2.124,65.8-4.263,97.948-10.416,17.849-3.413,36.229-8.48,48.886-19.583,16.064-14.1,19.351-37.114,7.66-53.659-19.6-27.75-71.3-32.983-85.352-63.008-7.752-16.529-1.067-35.486,8.778-51.419,21.116-34.186,57.461-64.808,58.073-103.045.42-26.258-18.481-51.874-46.711-63.286-29.59-11.953-69.935-8.879-90.666,13.4C422.4,92.929,383.813,102.845,350.441,102.88Z" transform="translate(-2.83 -47.454)" fill="#fff" opacity="0.23"/>
  <g id="Group_931" data-name="Group 931" transform="translate(0 64.142)">
    <circle id="Ellipse_230" data-name="Ellipse 230" cx="5.083" cy="5.083" r="5.083" transform="translate(308.791)" fill="#fff"/>
    <circle id="Ellipse_231" data-name="Ellipse 231" cx="5.083" cy="5.083" r="5.083" transform="translate(308.791 20.256)" fill="#fff"/>
    <circle id="Ellipse_232" data-name="Ellipse 232" cx="5.083" cy="5.083" r="5.083" transform="translate(330.011)" fill="#fff"/>
    <circle id="Ellipse_233" data-name="Ellipse 233" cx="5.083" cy="5.083" r="5.083" transform="translate(330.011 20.256)" fill="#fff"/>
    <circle id="Ellipse_234" data-name="Ellipse 234" cx="5.083" cy="5.083" r="5.083" transform="translate(351.232)" fill="#fff"/>
    <circle id="Ellipse_235" data-name="Ellipse 235" cx="5.083" cy="5.083" r="5.083" transform="translate(351.232 20.256)" fill="#fff"/>
    <circle id="Ellipse_236" data-name="Ellipse 236" cx="5.083" cy="5.083" r="5.083" transform="translate(351.232 40.513)" fill="#fff"/>
    <circle id="Ellipse_237" data-name="Ellipse 237" cx="5.083" cy="5.083" r="5.083" transform="translate(351.232 60.769)" fill="#fff"/>
    <circle id="Ellipse_238" data-name="Ellipse 238" cx="5.083" cy="5.083" r="5.083" transform="translate(372.452)" fill="#fff"/>
    <circle id="Ellipse_239" data-name="Ellipse 239" cx="5.083" cy="5.083" r="5.083" transform="translate(372.452 20.256)" fill="#fff"/>
    <circle id="Ellipse_240" data-name="Ellipse 240" cx="5.083" cy="5.083" r="5.083" transform="translate(372.452 40.513)" fill="#fff"/>
    <circle id="Ellipse_241" data-name="Ellipse 241" cx="5.083" cy="5.083" r="5.083" transform="translate(372.452 60.769)" fill="#fff"/>
    <circle id="Ellipse_242" data-name="Ellipse 242" cx="5.083" cy="5.083" r="5.083" transform="translate(393.673)" fill="#fff"/>
    <circle id="Ellipse_243" data-name="Ellipse 243" cx="5.083" cy="5.083" r="5.083" transform="translate(393.673 20.256)" fill="#fff"/>
    <circle id="Ellipse_244" data-name="Ellipse 244" cx="5.083" cy="5.083" r="5.083" transform="translate(414.893)" fill="#fff"/>
    <circle id="Ellipse_245" data-name="Ellipse 245" cx="5.083" cy="5.083" r="5.083" transform="translate(414.893 20.256)" fill="#fff"/>
    <path id="Path_1476" data-name="Path 1476" d="M923.259,564.7H885.527c0,1.085-38.888,1.965-38.888,1.965a10.1,10.1,0,0,0-1.658,1.572,9.753,9.753,0,0,0-2.28,6.288V576.1a9.828,9.828,0,0,0,9.824,9.824H923.26a9.833,9.833,0,0,0,9.824-9.824v-1.572A9.838,9.838,0,0,0,923.259,564.7Z" transform="translate(-342.358 -348.12)" fill="#3f3d56"/>
    <rect id="Rectangle_318" data-name="Rectangle 318" width="10.217" height="66.019" transform="translate(540.815 237.412)" fill="#3f3d56"/>
    <path id="Path_1477" data-name="Path 1477" d="M925.359,672.064c0,1.1-15.483.427-34.581.427s-34.581.677-34.581-.427,15.483-9.858,34.581-9.858S925.359,670.96,925.359,672.064Z" transform="translate(-345.246 -368.992)" fill="#3f3d56"/>
    <path id="Path_1478" data-name="Path 1478" d="M625.227,430.135h-9.636l-4.584-37.166h14.222Z" transform="translate(-130.79 -135.745)" fill="#ffb8b8"/>
    <path id="Path_1479" data-name="Path 1479" d="M604.9,436.753h18.583v11.7H593.2A11.7,11.7,0,0,1,604.9,436.753Z" transform="translate(-126.978 -145.118)" fill="#2f2e41"/>
    <path id="Path_1480" data-name="Path 1480" d="M607.458,422.6l-9.193-2.885,6.753-36.833,13.568,4.258Z" transform="translate(-128.062 -133.585)" fill="#ffb8b8"/>
    <path id="Path_1481" data-name="Path 1481" d="M11.7,0H30.283V11.7H0A11.7,11.7,0,0,1,11.7,0Z" transform="translate(453.294 277.936) rotate(17.423)" fill="#2f2e41"/>
    <path id="Path_1482" data-name="Path 1482" d="M889.711,552.785a29.771,29.771,0,0,0-1.194-5.517l-1.8-2.263-4.684-5.879-.2.008c-.346.016-1.785.094-4.008.267H877.8c-1.375.11-3.057.252-4.967.432-.5.055-1.03.1-1.572.157v8.205h9.824a1.968,1.968,0,0,1,1.949,1.713c.008.086.016.165.016.252a1.965,1.965,0,0,1-1.965,1.965h-57.06a22.315,22.315,0,0,0-2.091,1.572,11.7,11.7,0,0,0-4.126,6.178c-3.332,14.65-9.407,41.969-11.2,49.994a3.567,3.567,0,0,0,1.061,3.364,3.492,3.492,0,0,0,1.156.715l7.089,2.656a3.769,3.769,0,0,0,.9.212c.039,0,.071.008.11.008a2.048,2.048,0,0,0,.22.008,3.562,3.562,0,0,0,3.309-2.279l5.6-14.681,8.622-22.635,3.411-8.952c3.953.928,37.12,8.268,48.225-3.56a12.625,12.625,0,0,0,2.547-4.016A16.351,16.351,0,0,0,889.711,552.785Z" transform="translate(-334.614 -342.645)" fill="#2f2e41"/>
    <path id="Path_1483" data-name="Path 1483" d="M902.114,556.421c-.173-.7-.369-1.422-.6-2.153l-6.484-8.142-.2.008c-.409.024-2.35.126-5.329.369-3.379.283-8.1.739-13.408,1.454-.157.016-.322.039-.479.063-.519.071-1.045.141-1.572.22v1.454h9.824a1.969,1.969,0,0,1,1.949,1.713c.007.087.015.165.015.252a1.965,1.965,0,0,1-1.965,1.965H849.142c-1.517.5-2.979,1.014-4.377,1.572-7.341,2.908-12.835,6.72-13.959,11.679-.377,1.666-.793,3.5-1.234,5.447-1.635,7.246-3.623,16.12-5.423,24.184v.008c-.37,1.666-.739,3.285-1.093,4.857-1.5,6.759-2.774,12.489-3.45,15.5-.016.086-.031.165-.047.252v.016a3.67,3.67,0,0,0,.22,1.8l.007.008v.008a3.481,3.481,0,0,0,1.022,1.407,3.607,3.607,0,0,0,1.014.59l7.089,2.656a3.592,3.592,0,0,0,1.234.228,3.484,3.484,0,0,0,1.69-.432,3.536,3.536,0,0,0,1.619-1.847L848.717,581.5l2.366-6.217c3.953.927,37.12,8.26,48.225-3.56a13.276,13.276,0,0,0,3.521-8.7A23.333,23.333,0,0,0,902.114,556.421Z" transform="translate(-337.398 -344.144)" fill="#2f2e41"/>
    <path id="Path_1484" data-name="Path 1484" d="M912.8,469.257c-.126-.149-.26-.3-.4-.44a19.234,19.234,0,0,0-16.481-5.808,62.36,62.36,0,0,0-7.789,1.533,19.636,19.636,0,0,0-8.787,4.928,19.188,19.188,0,0,0-5.824,14.3c.031,1.077.039,2.177.024,3.293,0,.519-.008,1.045-.016,1.572h7.749a4.182,4.182,0,0,1,1,.118,4.332,4.332,0,0,1,3.325,4.2v36.562c.526.149,1.053.3,1.572.456.165.055.322.1.479.149.181.055.362.11.535.165q2.393.743,4.676,1.572h2.562a1.968,1.968,0,0,1,1.949,1.713c.534.212,1.053.424,1.564.637,1.815.755,3.537,1.509,5.116,2.24,2.13.975,4.024,1.9,5.612,2.712a3.605,3.605,0,0,0,1.611.393,3.462,3.462,0,0,0,2.043-.676,4.366,4.366,0,0,0,.354-.291,3.541,3.541,0,0,0,1.077-3.128,100.662,100.662,0,0,1-.707-18.627c.22-5.227.692-10.587,1.3-15.766.33-2.806.7-5.557,1.085-8.205.369-2.531.762-4.959,1.147-7.254A19.34,19.34,0,0,0,912.8,469.257Z" transform="translate(-348.952 -326.316)" fill="#fff"/>
    <path id="Path_1485" data-name="Path 1485" d="M877.616,471.622a9.33,9.33,0,0,0-1.242-.432,9.037,9.037,0,0,0-10.642,5.132l-5.4,12.465-.676,1.572h18.65a4.174,4.174,0,0,1,1,.118l.629-1.454,2.389-5.517A9.047,9.047,0,0,0,877.616,471.622Z" transform="translate(-345.987 -328.037)" fill="#fff"/>
    <circle id="Ellipse_246" data-name="Ellipse 246" cx="19.304" cy="19.304" r="19.304" transform="translate(529.093 91.949)" fill="#ffb8b8"/>
    <path id="Path_1486" data-name="Path 1486" d="M919.72,501.015l-11.019.3-.8,7.742-.181,1.792L890.459,518.6l-1.572.707v13.778l1.572-.448,4.967-1.415h.024l21.88-6.233.251-.07a8.551,8.551,0,0,0,6.178-8.135l.055-9.14.047-6.736Z" transform="translate(-352.244 -334.464)" fill="#ffb8b8"/>
    <path id="Path_1487" data-name="Path 1487" d="M927.758,479.254a9.04,9.04,0,0,0-18.046,1.108l1.2,19.617a3.527,3.527,0,0,0,1.438,2.625,3.486,3.486,0,0,0,2.311.684l8.426-.519,2.554-.157a3.446,3.446,0,0,0,2.436-1.187,2.5,2.5,0,0,0,.188-.236,3.512,3.512,0,0,0,.692-2.326Z" transform="translate(-356.698 -328.013)" fill="#fff"/>
    <path id="Path_1488" data-name="Path 1488" d="M869.639,536.892h-1.014v-.1c-.519.071-1.045.142-1.572.22v1.454h7.262Q872.028,537.638,869.639,536.892Zm0,0h-1.014v-.1c-.519.071-1.045.142-1.572.22v1.454h7.262Q872.028,537.638,869.639,536.892Zm7.239,0h-8.252V499.56a5.9,5.9,0,0,0-4.268-5.659,5.537,5.537,0,0,0-1.627-.236H792.782a5.9,5.9,0,0,0-5.895,5.895v38.511a5.9,5.9,0,0,0,5.895,5.894h84.1a3.54,3.54,0,0,0,3.513-3.151,3,3,0,0,0,.024-.385A3.542,3.542,0,0,0,876.878,536.892Zm1.965,3.537a1.965,1.965,0,0,1-1.965,1.965h-84.1a4.325,4.325,0,0,1-4.323-4.323V499.56a4.325,4.325,0,0,1,4.323-4.323h69.949c.336,0,4.319,2.321,4.323,4.323v38.9h9.824a1.968,1.968,0,0,1,1.949,1.713C878.835,540.264,878.842,540.342,878.842,540.429Zm-9.2-3.537h-1.014v-.1c-.519.071-1.045.142-1.572.22v1.454h7.262Q872.028,537.638,869.639,536.892Z" transform="translate(-330.411 -332.914)" fill="#3f3d56"/>
    <circle id="Ellipse_247" data-name="Ellipse 247" cx="4.716" cy="4.716" r="4.716" transform="translate(492.627 181.187)" fill="#fff"/>
    <path id="Path_1489" data-name="Path 1489" d="M893,413.922c-4.484,4.005-10.5,8.3-15.985,5.37a9.221,9.221,0,0,1-4.368-10.152c1.514-7.193,7.732-11.08,13.753-14.222,7.827-4.084,16.464-7.646,25.229-6.584s17.328,8.3,16.914,17.123c-.333,7.092-6.124,13.708-4.291,20.567,1.845,6.9,10.224,9.576,17.361,9.927s14.993-.257,20.654,4.1c7.222,5.561,7.107,17.19,1.965,24.717s-13.823,11.762-22.351,14.982c-11.3,4.266-23.718,7.348-35.381,4.212s-21.873-14.325-20.162-26.281c.723-5.05,3.379-9.583,5.943-13.993s5.143-9.009,5.681-14.082c.448-4.227-.894-8.894-4.012-11.617a3.487,3.487,0,0,1-.988-3.982Z" transform="translate(-348.72 -310.327)" fill="#2f2e41"/>
    <path id="Path_1490" data-name="Path 1490" d="M207.022,676.046H814.788a.936.936,0,1,0,0-1.872H207.022a.936.936,0,1,0,0,1.872Z" transform="translate(-206.086 -371.554)" fill="#b5b5b5"/>
    <path id="Path_1491" data-name="Path 1491" d="M246.516,574.526V576.1a9.833,9.833,0,0,0,9.824,9.824h70.735A9.828,9.828,0,0,0,336.9,576.1v-1.572a9.754,9.754,0,0,0-2.279-6.288,10.1,10.1,0,0,0-1.658-1.572s-38.888-.88-38.888-1.965H256.34A9.838,9.838,0,0,0,246.516,574.526Z" transform="translate(-214.741 -348.12)" fill="#3f3d56"/>
    <rect id="Rectangle_319" data-name="Rectangle 319" width="10.217" height="66.019" transform="translate(81.687 303.431) rotate(180)" fill="#3f3d56"/>
    <path id="Path_1492" data-name="Path 1492" d="M260.021,672.064c0,1.1,15.483.427,34.582.427s34.581.677,34.581-.427-15.483-9.858-34.581-9.858S260.021,670.96,260.021,672.064Z" transform="translate(-217.631 -368.992)" fill="#3f3d56"/>
    <path id="Path_1493" data-name="Path 1493" d="M163.53,430.9h9.636l4.584-37.166H163.528Z" transform="translate(-35.004 -135.908)" fill="#ffb8b8"/>
    <path id="Path_1494" data-name="Path 1494" d="M0,0H30.284V11.7H11.7A11.7,11.7,0,0,1,0,0H0Z" transform="translate(156.742 303.935) rotate(179.997)" fill="#2f2e41"/>
    <path id="Path_1495" data-name="Path 1495" d="M179.637,423.358l9.193-2.885-6.753-36.833L168.509,387.9Z" transform="translate(-36.07 -133.748)" fill="#ffb8b8"/>
    <path id="Path_1496" data-name="Path 1496" d="M0,0H30.284V11.7H11.7A11.7,11.7,0,0,1,0,0H0Z" transform="translate(173.169 289.7) rotate(162.577)" fill="#2f2e41"/>
    <path id="Path_1497" data-name="Path 1497" d="M361.652,615.312l-17.626-46.269c-3.954.928-37.117,8.267-48.225-3.559-3.806-4.053-4.549-9.926-2.207-17.454l6.482-8.146.2.011c2.451.129,60.074,3.359,64.024,20.74,3.33,14.653,9.413,41.973,11.2,50a3.549,3.549,0,0,1-2.212,4.074l-7.089,2.658a3.507,3.507,0,0,1-1.235.225,3.547,3.547,0,0,1-3.312-2.277Z" transform="translate(-224.532 -342.808)" fill="#2f2e41"/>
    <path id="Path_1498" data-name="Path 1498" d="M348.652,622.312l-17.626-46.269c-3.955.929-37.117,8.266-48.225-3.559-3.807-4.053-4.549-9.925-2.207-17.454l6.482-8.146.2.011c2.451.129,60.074,3.359,64.024,20.74,3.33,14.654,9.413,41.974,11.2,50a3.549,3.549,0,0,1-2.212,4.074l-7.089,2.658a3.508,3.508,0,0,1-1.236.225,3.547,3.547,0,0,1-3.312-2.277Z" transform="translate(-221.75 -344.306)" fill="#2f2e41"/>
    <path id="Path_1499" data-name="Path 1499" d="M342.326,521.881a15.088,15.088,0,0,1-12.956-7.366l-5.6-9.483,13.305-7.272,5.65,7.746,38.333-4.039a8.293,8.293,0,0,1,.628-.97h0a8.658,8.658,0,0,1,6.188-3.391,8.562,8.562,0,0,1,6.675,2.367,8.646,8.646,0,0,1-11.2,13.137,8.146,8.146,0,0,1-.647-.55l-36.715,9.361A14.818,14.818,0,0,1,342.326,521.881Z" transform="translate(-231.278 -333.645)" fill="#ffb8b8"/>
    <path id="Path_1500" data-name="Path 1500" d="M279.407,539.648a3.542,3.542,0,0,1-1.429-3.418c2.187-14.417-.329-35.068-2.825-49.854a19.488,19.488,0,0,1,21.66-22.605,62.8,62.8,0,0,1,7.791,1.536h0a19.331,19.331,0,0,1,14.6,19.23c-.373,14.268,2.524,32.071,3.787,39.062a3.552,3.552,0,0,1-.655,2.759,3.453,3.453,0,0,1-2.433,1.375c-14,1.428-29.09,8.254-36.841,12.2a3.539,3.539,0,0,1-1.611.394A3.482,3.482,0,0,1,279.407,539.648Z" transform="translate(-220.811 -326.482)" fill="#fff"/>
    <path id="Path_1501" data-name="Path 1501" d="M325.853,504.181a3.515,3.515,0,0,1-1.944-1.884L316.1,484.265a9.038,9.038,0,1,1,16.589-7.18l7.806,18.031a3.541,3.541,0,0,1-1.841,4.65l-10.1,4.371A3.512,3.512,0,0,1,325.853,504.181Z" transform="translate(-229.477 -328.199)" fill="#fff"/>
    <circle id="Ellipse_248" data-name="Ellipse 248" cx="19.304" cy="19.304" r="19.304" transform="translate(55.262 92.547)" fill="#ffb8b8"/>
    <path id="Path_1502" data-name="Path 1502" d="M281.635,441.2a3.124,3.124,0,0,1-4.472.257,34.916,34.916,0,0,1-9.96-13.006c-2.51-5.982-2.877-13.282-.021-18.889,2.414-4.74,6.749-7.757,11.076-10.223a18.074,18.074,0,0,1,5.382-2.275,7.068,7.068,0,0,1,5.623,1.106,5.93,5.93,0,0,1,2.262,5.68,17.568,17.568,0,0,1,7.7-5.782,8.932,8.932,0,0,1,5.937-.4c2.779.928,4.836,3.734,5.98,6.748a15.044,15.044,0,0,1,.987,7.281,8.746,8.746,0,0,1-3.355,6.029c-2.267,1.564-5.187,1.405-7.823.713s-5.194-1.866-7.876-2.193-5.654.382-7.252,2.774c-1.125,1.685-1.391,3.9-1.62,6.019l-1.194,11a14.576,14.576,0,0,1-1,4.59A2.557,2.557,0,0,1,281.635,441.2Z" transform="translate(-218.735 -312.199)" fill="#2f2e41"/>
    <path id="Path_1503" data-name="Path 1503" d="M365.5,592.083H334.165a3.339,3.339,0,0,1-2.637-1.278,3.394,3.394,0,0,1-.634-2.912,80.424,80.424,0,0,0,0-37.352,3.4,3.4,0,0,1,.634-2.912,3.337,3.337,0,0,1,2.637-1.278H365.5a3.382,3.382,0,0,1,3.33,2.834,131.645,131.645,0,0,1,0,40.064A3.382,3.382,0,0,1,365.5,592.083Z" transform="translate(-232.781 -344.192)" fill="#fff"/>
    <path id="Path_1504" data-name="Path 1504" d="M344.352,567.135v-.921a2.36,2.36,0,0,1,2.358-2.358h16.445a2.36,2.36,0,0,1,2.358,2.358v.921a2.36,2.36,0,0,1-2.358,2.358H346.71A2.36,2.36,0,0,1,344.352,567.135Z" transform="translate(-235.683 -347.939)" fill="#f1f1f1"/>
    <path id="Path_1505" data-name="Path 1505" d="M344.352,579.48v-.921a2.36,2.36,0,0,1,2.358-2.358h16.445a2.36,2.36,0,0,1,2.358,2.358v.921a2.36,2.36,0,0,1-2.358,2.358H346.71A2.36,2.36,0,0,1,344.352,579.48Z" transform="translate(-235.683 -350.582)" fill="#f1f1f1"/>
    <path id="Path_1506" data-name="Path 1506" d="M357.011,519.979a3.451,3.451,0,0,1-.645-2.96,81.741,81.741,0,0,0,0-37.966,3.452,3.452,0,0,1,.645-2.96,3.393,3.393,0,0,1,2.68-1.3h31.852a3.437,3.437,0,0,1,3.385,2.88,133.791,133.791,0,0,1,0,40.722,3.437,3.437,0,0,1-3.385,2.88H359.692A3.394,3.394,0,0,1,357.011,519.979Z" transform="translate(-238.234 -328.875)" fill="#2d6bd2"/>
    <path id="Path_1507" data-name="Path 1507" d="M388.119,495.06H371.34a2.36,2.36,0,0,1-2.358-2.358v-1a2.36,2.36,0,0,1,2.358-2.358h16.779a2.36,2.36,0,0,1,2.358,2.358v1A2.36,2.36,0,0,1,388.119,495.06Z" transform="translate(-240.955 -331.989)" fill="#fff"/>
    <path id="Path_1508" data-name="Path 1508" d="M388.119,507.607H371.34a2.36,2.36,0,0,1-2.358-2.358v-1a2.36,2.36,0,0,1,2.358-2.358h16.779a2.36,2.36,0,0,1,2.358,2.358v1A2.36,2.36,0,0,1,388.119,507.607Z" transform="translate(-240.955 -334.675)" fill="#fff"/>
    <path id="Path_1509" data-name="Path 1509" d="M324.234,543.021a8.66,8.66,0,0,1-5.135-4.84,8.049,8.049,0,0,1-.282-.8l-41.122-11.705a8.551,8.551,0,0,1-6.178-8.129l-.1-15.877,15.158.406.988,9.537L322.725,527.4a8.338,8.338,0,0,1,1.031-.522h0a8.653,8.653,0,1,1,.478,16.144Z" transform="translate(-220.07 -334.628)" fill="#ffb8b8"/>
    <path id="Path_1510" data-name="Path 1510" d="M271.474,502.189a3.514,3.514,0,0,1-.88-2.56l1.206-19.611a9.038,9.038,0,0,1,18.042,1.11l-1.206,19.611a3.541,3.541,0,0,1-3.747,3.313l-10.983-.675a3.512,3.512,0,0,1-2.433-1.187Z" transform="translate(-219.893 -328.177)" fill="#fff"/>
    <path id="Path_1511" data-name="Path 1511" d="M477.129,353.6H412.681a7.082,7.082,0,0,1-7.073-7.074V276.582a7.082,7.082,0,0,1,7.073-7.073h64.447a7.081,7.081,0,0,1,7.073,7.073V346.53a7.081,7.081,0,0,1-7.073,7.074ZM412.681,271.08a5.508,5.508,0,0,0-5.5,5.5V346.53a5.508,5.508,0,0,0,5.5,5.5h64.447a5.508,5.508,0,0,0,5.5-5.5V276.582a5.508,5.508,0,0,0-5.5-5.5Z" transform="translate(-254.558 -233.304)" fill="#fff"/>
    <path id="Path_1512" data-name="Path 1512" d="M627.129,353.6H562.681a7.082,7.082,0,0,1-7.073-7.074V276.582a7.082,7.082,0,0,1,7.073-7.073h64.447a7.081,7.081,0,0,1,7.073,7.073V346.53A7.082,7.082,0,0,1,627.129,353.6ZM562.681,271.08a5.508,5.508,0,0,0-5.5,5.5V346.53a5.508,5.508,0,0,0,5.5,5.5h64.447a5.508,5.508,0,0,0,5.5-5.5V276.582a5.508,5.508,0,0,0-5.5-5.5Z" transform="translate(-286.667 -233.304)" fill="#fff"/>
    <path id="Path_1513" data-name="Path 1513" d="M428.447,302.869H422.16a3.541,3.541,0,0,1-3.537-3.537v-6.288a3.541,3.541,0,0,1,3.537-3.537h6.288a3.541,3.541,0,0,1,3.537,3.537v6.288A3.541,3.541,0,0,1,428.447,302.869Z" transform="translate(-257.344 -237.585)" fill="#fff"/>
    <path id="Path_1514" data-name="Path 1514" d="M428.447,327.869H422.16a3.541,3.541,0,0,1-3.537-3.537v-6.288a3.541,3.541,0,0,1,3.537-3.537h6.288a3.541,3.541,0,0,1,3.537,3.537v6.288A3.541,3.541,0,0,1,428.447,327.869Z" transform="translate(-257.344 -242.937)" fill="#fff"/>
    <path id="Path_1515" data-name="Path 1515" d="M480.956,300.088H451.6a2.36,2.36,0,0,1-2.358-2.358v-1a2.36,2.36,0,0,1,2.358-2.358h29.354a2.36,2.36,0,0,1,2.358,2.358v1a2.36,2.36,0,0,1-2.358,2.358Z" transform="translate(-263.899 -238.626)" fill="#fff"/>
    <path id="Path_1516" data-name="Path 1516" d="M579.137,301.3H572.85a3.541,3.541,0,0,1-3.537-3.537v-6.288a3.541,3.541,0,0,1,3.537-3.537h6.287a3.541,3.541,0,0,1,3.537,3.537v6.288A3.541,3.541,0,0,1,579.137,301.3Z" transform="translate(-289.6 -237.25)" fill="#fff"/>
    <path id="Path_1517" data-name="Path 1517" d="M631.646,298.519H602.292a2.361,2.361,0,0,1-2.358-2.358v-1a2.36,2.36,0,0,1,2.358-2.358h29.354A2.36,2.36,0,0,1,634,295.16v1A2.361,2.361,0,0,1,631.646,298.519Z" transform="translate(-296.155 -238.291)" fill="#fff"/>
    <path id="Path_1518" data-name="Path 1518" d="M624.8,322.519h-54.5a2.36,2.36,0,0,1-2.358-2.358v-1a2.361,2.361,0,0,1,2.358-2.358h54.5a2.361,2.361,0,0,1,2.358,2.358v1A2.361,2.361,0,0,1,624.8,322.519Z" transform="translate(-289.305 -243.428)" fill="#fff"/>
    <path id="Path_1519" data-name="Path 1519" d="M624.8,339.519h-54.5a2.36,2.36,0,0,1-2.358-2.358v-1a2.361,2.361,0,0,1,2.358-2.358h54.5a2.361,2.361,0,0,1,2.358,2.358v1A2.361,2.361,0,0,1,624.8,339.519Z" transform="translate(-289.305 -247.067)" fill="#fff"/>
    <path id="Path_1520" data-name="Path 1520" d="M624.8,356.519h-54.5a2.36,2.36,0,0,1-2.358-2.358v-1a2.36,2.36,0,0,1,2.358-2.358h54.5a2.361,2.361,0,0,1,2.358,2.358v1A2.36,2.36,0,0,1,624.8,356.519Z" transform="translate(-289.305 -250.706)" fill="#fff"/>
    <path id="Path_1521" data-name="Path 1521" d="M777.129,353.6H712.681a7.082,7.082,0,0,1-7.073-7.074V276.582a7.082,7.082,0,0,1,7.073-7.073h64.447a7.082,7.082,0,0,1,7.074,7.073V346.53A7.082,7.082,0,0,1,777.129,353.6ZM712.681,271.08a5.508,5.508,0,0,0-5.5,5.5V346.53a5.508,5.508,0,0,0,5.5,5.5h64.447a5.508,5.508,0,0,0,5.5-5.5V276.582a5.508,5.508,0,0,0-5.5-5.5Z" transform="translate(-318.775 -233.304)" fill="#fff"/>
    <path id="Path_1522" data-name="Path 1522" d="M781.646,298.519H752.292a2.36,2.36,0,0,1-2.358-2.358v-1a2.36,2.36,0,0,1,2.358-2.358h29.354A2.36,2.36,0,0,1,784,295.16v1A2.36,2.36,0,0,1,781.646,298.519Z" transform="translate(-328.263 -238.291)" fill="#fff"/>
    <path id="Path_1523" data-name="Path 1523" d="M774.8,322.519h-54.5a2.36,2.36,0,0,1-2.358-2.358v-1a2.361,2.361,0,0,1,2.358-2.358h54.5a2.36,2.36,0,0,1,2.358,2.358v1A2.36,2.36,0,0,1,774.8,322.519Z" transform="translate(-321.413 -243.428)" fill="#fff"/>
    <path id="Path_1524" data-name="Path 1524" d="M774.8,339.519h-54.5a2.361,2.361,0,0,1-2.358-2.358v-1a2.361,2.361,0,0,1,2.358-2.358h54.5a2.36,2.36,0,0,1,2.358,2.358v1A2.36,2.36,0,0,1,774.8,339.519Z" transform="translate(-321.413 -247.067)" fill="#fff"/>
    <path id="Path_1525" data-name="Path 1525" d="M774.8,356.519h-54.5a2.361,2.361,0,0,1-2.358-2.358v-1a2.361,2.361,0,0,1,2.358-2.358h54.5a2.36,2.36,0,0,1,2.358,2.358v1A2.36,2.36,0,0,1,774.8,356.519Z" transform="translate(-321.413 -250.706)" fill="#fff"/>
    <path id="Path_1526" data-name="Path 1526" d="M480.956,325.088H451.6a2.36,2.36,0,0,1-2.358-2.358v-1a2.36,2.36,0,0,1,2.358-2.358h29.354a2.36,2.36,0,0,1,2.358,2.358v1a2.36,2.36,0,0,1-2.358,2.358Z" transform="translate(-263.899 -243.978)" fill="#fff"/>
    <path id="Path_1527" data-name="Path 1527" d="M428.447,352.869H422.16a3.541,3.541,0,0,1-3.537-3.537v-6.288a3.541,3.541,0,0,1,3.537-3.537h6.288a3.541,3.541,0,0,1,3.537,3.537v6.288a3.541,3.541,0,0,1-3.537,3.537Z" transform="translate(-257.344 -248.288)" fill="#fff"/>
    <path id="Path_1528" data-name="Path 1528" d="M480.956,350.088H451.6a2.36,2.36,0,0,1-2.358-2.358v-1a2.36,2.36,0,0,1,2.358-2.358h29.354a2.36,2.36,0,0,1,2.358,2.358v1a2.36,2.36,0,0,1-2.358,2.358Z" transform="translate(-263.899 -249.329)" fill="#fff"/>
    <path id="Path_1529" data-name="Path 1529" d="M734.679,293.567c0-.018,0-.036,0-.054a7.073,7.073,0,0,0-7.073-7.074v7.127Z" transform="translate(-323.484 -236.929)" fill="#fff"/>
    <path id="Path_1530" data-name="Path 1530" d="M724.681,294.567v-7.128a7.073,7.073,0,1,0,7.071,7.127Z" transform="translate(-321.343 -237.143)" fill="#fff"/>
  </g>
</svg>
